# xmcd
#
# Track frame offsets:
#	150
#	13810
#	27318
#	41272
#	58716
#	76064
#	94492
#	111435
#	128603
#	145007
#	158180
#	171973
#	189893
#	202516
#	219230
#	232981
#	244366
#	259748
#	275258
#
# Disc length: 3852 seconds
#
# Revision: 2
# Processed by: cddbd v1.4PL0 Copyright (c) Steve Scherf et al.
# Submitted via: MusicManager 7.0.3.0 
#
DISCID=f80f0a13
DTITLE=Various Artist - Country Radio - September 2001
DYEAR=2001
DGENRE=
TTITLE0=Toby Keith - I Wanna Talk About Me
TTITLE1=Jo Dee Messina - Bring On The Rain
TTITLE2=Brad Paisley - Wrapped Around
TTITLE3=LeAnn Rimes - Soon
TTITLE4=Lonestar - With Me
TTITLE5=Jamie O'Neal - Shiver
TTITLE6=Tracy Byrd - Just Let Me Be In Love
TTITLE7=Montgomery Gentry - Cold One Comin In
TTITLE8=Sara Evans - Saints And Angels
TTITLE9=Tracy Lawrence - Life Don't Have To Be So Hard
TTITLE10=Charlie Robison - Right Man For The Job
TTITLE11=Shannon Brown - Baby I Lied
TTITLE12=Hal Ketchum - Don't Let Go
TTITLE13=Billy Gilman - Elisabeth
TTITLE14=Kenny Rodgers - Beautiful (All That You Could Be)
TTITLE15=Elbert West - Unpredictable
TTITLE16=Rascal Flatts - While You Loved Me
TTITLE17=Rebel Hearts - Daddy's Dream
TTITLE18=Kacey Jones - Love Handle
EXTD=
EXTT0=
EXTT1=
EXTT2=
EXTT3=
EXTT4=
EXTT5=
EXTT6=
EXTT7=
EXTT8=
EXTT9=
EXTT10=
EXTT11=
EXTT12=
EXTT13=
EXTT14=
EXTT15=
EXTT16=
EXTT17=
EXTT18=
PLAYORDER=
